<svg width="32" height="32" viewBox="0 0 32 32" fill="none" xmlns="http://www.w3.org/2000/svg">
<mask id="path-1-inside-1_1128_421" fill="white">
<path fill-rule="evenodd" clip-rule="evenodd" d="M3.98975 6.09581C1.3366 8.89016 1.33662 13.4207 3.98979 16.2151L7.7735 20.2002L7.79283 20.2208L14.5986 27.3888C15.3724 28.2038 16.6271 28.2038 17.4009 27.3888L20.7698 23.8406L20.8042 23.8046L28.01 16.2153C30.6632 13.4209 30.6632 8.89029 28.01 6.09588C25.3568 3.30147 21.0551 3.30145 18.4019 6.09584L15.9998 8.62581L13.5977 6.09585C10.9445 3.30148 6.6429 3.30146 3.98975 6.09581Z"/>
</mask>
<path fill-rule="evenodd" clip-rule="evenodd" d="M3.98975 6.09581C1.3366 8.89016 1.33662 13.4207 3.98979 16.2151L7.7735 20.2002L7.79283 20.2208L14.5986 27.3888C15.3724 28.2038 16.6271 28.2038 17.4009 27.3888L20.7698 23.8406L20.8042 23.8046L28.01 16.2153C30.6632 13.4209 30.6632 8.89029 28.01 6.09588C25.3568 3.30147 21.0551 3.30145 18.4019 6.09584L15.9998 8.62581L13.5977 6.09585C10.9445 3.30148 6.6429 3.30146 3.98975 6.09581Z" fill="white"/>
<path d="M3.98979 16.2151L5.44017 14.838L3.98979 16.2151ZM3.98975 6.09581L2.53936 4.71872L2.53936 4.71872L3.98975 6.09581ZM7.7735 20.2002L9.23323 18.8329L9.22389 18.8231L7.7735 20.2002ZM7.79283 20.2208L6.3331 21.5881L6.34245 21.5979L7.79283 20.2208ZM14.5986 27.3888L13.1482 28.7659L13.1482 28.7659L14.5986 27.3888ZM17.4009 27.3888L18.8513 28.7659L18.8513 28.7659L17.4009 27.3888ZM20.7698 23.8406L19.3242 22.4584L19.3194 22.4636L20.7698 23.8406ZM20.8042 23.8046L22.2498 25.1868L22.2546 25.1817L20.8042 23.8046ZM28.01 16.2153L29.4604 17.5924L29.4604 17.5924L28.01 16.2153ZM28.01 6.09588L26.5596 7.47297L26.5596 7.47297L28.01 6.09588ZM18.4019 6.09584L16.9515 4.71875L16.9515 4.71875L18.4019 6.09584ZM15.9998 8.62581L14.5494 10.0029L15.9998 11.5305L17.4502 10.0029L15.9998 8.62581ZM13.5977 6.09585L15.0481 4.71876L15.0481 4.71876L13.5977 6.09585ZM5.44017 14.838C3.51982 12.8154 3.51982 9.49542 5.44013 7.4729L2.53936 4.71872C-0.846612 8.2849 -0.846576 14.026 2.5394 17.5922L5.44017 14.838ZM9.22389 18.8231L5.44017 14.838L2.5394 17.5922L6.32312 21.5773L9.22389 18.8231ZM9.25253 18.8536L9.2332 18.833L6.31381 21.5674L6.33314 21.588L9.25253 18.8536ZM16.049 26.0117L9.24322 18.8437L6.34245 21.5979L13.1482 28.7659L16.049 26.0117ZM15.9505 26.0117C15.9446 26.018 15.9472 26.0134 15.9599 26.008C15.9713 26.0031 15.9851 26.0001 15.9998 26.0001C16.0144 26.0001 16.0282 26.0031 16.0396 26.008C16.0523 26.0134 16.0549 26.018 16.049 26.0117L13.1482 28.7659C14.7106 30.4114 17.2889 30.4115 18.8513 28.7659L15.9505 26.0117ZM19.3194 22.4636L15.9505 26.0117L18.8513 28.7659L22.2202 25.2177L19.3194 22.4636ZM19.3587 22.4224L19.3242 22.4585L22.2153 25.2228L22.2498 25.1868L19.3587 22.4224ZM26.5596 14.8382L19.3538 22.4275L22.2546 25.1817L29.4604 17.5924L26.5596 14.8382ZM26.5596 7.47297C28.48 9.49557 28.48 12.8156 26.5596 14.8382L29.4604 17.5924C32.8464 14.0262 32.8464 8.28501 29.4604 4.71879L26.5596 7.47297ZM19.8523 7.47293C21.7169 5.5091 24.695 5.50909 26.5596 7.47297L29.4604 4.71879C26.0186 1.09384 20.3933 1.0938 16.9515 4.71875L19.8523 7.47293ZM17.4502 10.0029L19.8523 7.47293L16.9515 4.71875L14.5494 7.24872L17.4502 10.0029ZM12.1473 7.47294L14.5494 10.0029L17.4502 7.24872L15.0481 4.71876L12.1473 7.47294ZM5.44013 7.4729C7.3047 5.5091 10.2827 5.5091 12.1473 7.47294L15.0481 4.71876C11.6063 1.09385 5.9811 1.09381 2.53936 4.71872L5.44013 7.4729Z" fill="white" mask="url(#path-1-inside-1_1128_421)"/>
</svg>
