<svg width="32" height="32" viewBox="0 0 32 32" fill="none" xmlns="http://www.w3.org/2000/svg">
<mask id="path-1-inside-1_1128_421" fill="white">
<path fill-rule="evenodd" clip-rule="evenodd" d="M3.98985 6.09575C1.3367 8.89011 1.33672 13.4207 3.98989 16.215L7.7736 20.2001L7.79293 20.2208L14.5987 27.3887C15.3725 28.2038 16.6272 28.2038 17.401 27.3887L20.7699 23.8406L20.8043 23.8045L28.0101 16.2152C30.6633 13.4209 30.6633 8.89023 28.0101 6.09582C25.3569 3.30141 21.0552 3.30139 18.402 6.09578L15.9999 8.62576L13.5978 6.09579C10.9446 3.30142 6.643 3.3014 3.98985 6.09575Z"/>
</mask>
<path d="M3.98989 16.215L2.5395 17.5921L3.98989 16.215ZM3.98985 6.09575L5.44023 7.47285L5.44023 7.47285L3.98985 6.09575ZM7.7736 20.2001L9.23335 18.8329L9.22399 18.823L7.7736 20.2001ZM7.79293 20.2208L6.33318 21.588L6.34255 21.5979L7.79293 20.2208ZM14.5987 27.3887L13.1483 28.7658L13.1483 28.7658L14.5987 27.3887ZM17.401 27.3887L18.8514 28.7658L18.8514 28.7658L17.401 27.3887ZM20.7699 23.8406L19.3243 22.4584L19.3195 22.4635L20.7699 23.8406ZM20.8043 23.8045L22.2499 25.1867L22.2547 25.1816L20.8043 23.8045ZM28.0101 16.2152L29.4605 17.5923L29.4605 17.5923L28.0101 16.2152ZM28.0101 6.09582L29.4605 4.71873L29.4605 4.71873L28.0101 6.09582ZM18.402 6.09578L19.8524 7.47287L19.8524 7.47287L18.402 6.09578ZM15.9999 8.62576L14.5495 10.0028L15.9999 11.5304L17.4503 10.0029L15.9999 8.62576ZM13.5978 6.09579L15.0482 4.7187L15.0482 4.7187L13.5978 6.09579ZM5.44027 14.8379C3.51991 12.8154 3.51992 9.49537 5.44023 7.47285L2.53946 4.71866C-0.846513 8.28485 -0.846476 14.0259 2.5395 17.5921L5.44027 14.8379ZM9.22399 18.823L5.44027 14.8379L2.5395 17.5921L6.32322 21.5772L9.22399 18.823ZM9.25265 18.8536L9.23332 18.8329L6.31389 21.5673L6.33322 21.588L9.25265 18.8536ZM16.0491 26.0116L9.24332 18.8437L6.34255 21.5979L13.1483 28.7658L16.0491 26.0116ZM15.9506 26.0116C15.9447 26.0179 15.9473 26.0133 15.96 26.0079C15.9714 26.003 15.9852 26 15.9999 26C16.0145 26 16.0283 26.003 16.0397 26.0079C16.0524 26.0133 16.055 26.0179 16.0491 26.0116L13.1483 28.7658C14.7107 30.4114 17.289 30.4114 18.8514 28.7658L15.9506 26.0116ZM19.3195 22.4635L15.9506 26.0116L18.8514 28.7658L22.2202 25.2177L19.3195 22.4635ZM19.3588 22.4224L19.3243 22.4584L22.2154 25.2227L22.2499 25.1867L19.3588 22.4224ZM26.5597 14.8381L19.3539 22.4274L22.2547 25.1816L29.4605 17.5923L26.5597 14.8381ZM26.5597 7.47292C28.4801 9.49551 28.4801 12.8156 26.5597 14.8381L29.4605 17.5923C32.8465 14.0261 32.8465 8.28495 29.4605 4.71873L26.5597 7.47292ZM19.8524 7.47287C21.717 5.50904 24.6951 5.50903 26.5597 7.47292L29.4605 4.71873C26.0187 1.09379 20.3934 1.09375 16.9516 4.71869L19.8524 7.47287ZM17.4503 10.0029L19.8524 7.47287L16.9516 4.71869L14.5495 7.24866L17.4503 10.0029ZM12.1474 7.47289L14.5495 10.0028L17.4503 7.24866L15.0482 4.7187L12.1474 7.47289ZM5.44023 7.47285C7.3048 5.50905 10.2828 5.50904 12.1474 7.47289L15.0482 4.7187C11.6064 1.09379 5.9812 1.09375 2.53946 4.71866L5.44023 7.47285Z" fill="white" mask="url(#path-1-inside-1_1128_421)"/>
</svg>
