<svg width="32" height="32" viewBox="0 0 32 32" fill="none" xmlns="http://www.w3.org/2000/svg">
<mask id="mask0_1149_368" style="mask-type:alpha" maskUnits="userSpaceOnUse" x="2" y="2" width="28" height="28">
<path d="M17.8369 4.73721C17.1427 3.12529 14.8573 3.12529 14.1631 4.73722L11.5311 10.849L4.90503 11.4636C3.15749 11.6257 2.45124 13.7993 3.76976 14.9576L8.76911 19.3495L7.30603 25.8411C6.92015 27.5532 8.76915 28.8966 10.2782 28.0005L16 24.603L21.7218 28.0005C23.2309 28.8966 25.0798 27.5532 24.694 25.8411L23.2309 19.3495L28.2302 14.9576C29.5488 13.7993 28.8425 11.6257 27.095 11.4636L20.4689 10.849L17.8369 4.73721Z" fill="#FFB800" stroke="black" stroke-width="2" stroke-linejoin="round"/>
</mask>
<g mask="url(#mask0_1149_368)">
<rect x="2" y="2" width="28" height="28" fill="#FFB800"/>
</g>
</svg>
