<svg xmlns="http://www.w3.org/2000/svg" width="10" height="12.69" viewBox="0 0 10 12.69">
  <path id="패스_7257" data-name="패스 7257" d="M101.167,13.79h6.413a1.834,1.834,0,0,0,1.345-.445,1.79,1.79,0,0,0,.448-1.324V6.492a1.8,1.8,0,0,0-.448-1.327,1.827,1.827,0,0,0-1.345-.448h-1.528v1h1.493a.85.85,0,0,1,.614.209.841.841,0,0,1,.218.634v5.386a.834.834,0,0,1-.218.625.843.843,0,0,1-.614.212h-6.336a.831.831,0,0,1-.614-.212.848.848,0,0,1-.212-.625V6.563a.855.855,0,0,1,.212-.634.838.838,0,0,1,.614-.209h1.5v-1h-1.54a1.838,1.838,0,0,0-1.339.445,1.785,1.785,0,0,0-.454,1.33V12.02a1.776,1.776,0,0,0,.454,1.324A1.838,1.838,0,0,0,101.167,13.79Zm3.209-4.413a.469.469,0,0,0,.339-.142.448.448,0,0,0,.145-.33V3.229l-.041-.826.36.4.814.861a.4.4,0,0,0,.324.147.432.432,0,0,0,.31-.121.4.4,0,0,0,.127-.3.421.421,0,0,0-.142-.313L104.73,1.265a.6.6,0,0,0-.174-.127.435.435,0,0,0-.18-.038.455.455,0,0,0-.183.038.584.584,0,0,0-.177.127l-1.882,1.817a.43.43,0,0,0-.136.313.4.4,0,0,0,.121.3.45.45,0,0,0,.64-.027l.808-.861.36-.407-.035.832V8.9a.453.453,0,0,0,.142.33A.466.466,0,0,0,104.376,9.377Z" transform="translate(-99.374 -1.1)" fill="#fff"/>
</svg>
