<svg id="그룹_11601" data-name="그룹 11601" xmlns="http://www.w3.org/2000/svg" xmlns:xlink="http://www.w3.org/1999/xlink" width="801.841" height="542.055" viewBox="0 0 801.841 542.055">
  <defs>
    <clipPath id="clip-path">
      <rect id="사각형_7357" data-name="사각형 7357" width="801.841" height="542.055" fill="none"/>
    </clipPath>
  </defs>
  <g id="그룹_11600" data-name="그룹 11600" clip-path="url(#clip-path)">
    <path id="패스_7571" data-name="패스 7571" d="M580.6,288.229a111.626,111.626,0,0,1,49.021-38.322c19.2-7.712,40.427-9.961,60.57-5.525,9.647,2.126,21.052,6.305,26.542,15.744,4.872,8.377,4.169,20.746-3.854,26.634-8.09,5.937-19.586,3.723-26.252-3.535-7.408-8.065-9.231-20.387-8.321-31.229,2.223-26.466,19.465-47.352,36.531-65.035q3.194-3.309,6.423-6.579c1.218-1.24-1.526-5.582-2.445-4.646-18.282,18.614-37.733,38.85-42.724,66.466-2.256,12.479-1.124,26.12,5.06,37.188,2.914,5.215,6.91,9.9,12,12.724a22.127,22.127,0,0,0,14.416,2.5,17.872,17.872,0,0,0,12.259-8.1c2.813-4.517,3.53-10.259,2.805-15.552-1.713-12.513-10.2-21.917-20.732-26.9-10.058-4.761-21.562-6.462-32.487-6.687a106.517,106.517,0,0,0-31.958,4.33,112.639,112.639,0,0,0-54.737,35.9q-2.6,3.125-4.981,6.451c-.885,1.235,1.839,5.6,2.858,4.179" transform="translate(-1.342 11.611)" fill="#fff"/>
    <path id="패스_7572" data-name="패스 7572" d="M131.588,207.346a92.882,92.882,0,0,0,13.564,11.744c.657.467,8.547-12.824,7.377-13.654a92.945,92.945,0,0,1-13.564-11.744c-.424-.446-4.051,5.92-4.327,6.433-.436.8-3.884,6.346-3.05,7.221" transform="translate(-0.306 12.805)" fill="#72b0f8"/>
    <path id="패스_7573" data-name="패스 7573" d="M695.454,353.716a133.811,133.811,0,0,1-43.48,37.38c-2.444,1.311-1.378,13.559-1.357,16.007.011,1.2,1.2,16.21,1.636,15.976a133.81,133.81,0,0,0,43.48-37.38c2.5-3.3,1.392-12.019,1.357-16.007-.033-3.765-.133-7.56-.537-11.3a33.689,33.689,0,0,0-1.1-4.673" transform="translate(-1.512 23.387)" fill="#ffd800"/>
    <path id="패스_7574" data-name="패스 7574" d="M554.1,10.233a36.992,36.992,0,0,1,8.8,11.98c.064.135,3.018-4.405,3.237-4.812a40.458,40.458,0,0,0,1.812-3.7c.165-.4.669-1.274.47-1.7a36.992,36.992,0,0,0-8.8-11.98c-.386-.348-3.022,4.413-3.237,4.812-.3.546-2.9,4.85-2.282,5.4" transform="translate(-1.288 0)" fill="#20b780"/>
    <path id="패스_7575" data-name="패스 7575" d="M596.448,61.541a29.4,29.4,0,0,1-6.24,9.913c-.079.083,3.805,1.343,4.142,1.42a27.232,27.232,0,0,0,3.02.551c.317.036,1.052.227,1.3-.036a29.415,29.415,0,0,0,6.24-9.913c.15-.391-3.811-1.344-4.142-1.42-.452-.1-4.086-1.138-4.323-.515" transform="translate(-1.372 4.056)" fill="#72b0f8"/>
    <path id="패스_7576" data-name="패스 7576" d="M326.662,485.061l-4.609.85-12.624,2.326-18.586,3.427-22.672,4.178-24.958,4.6-25.075,4.623-23.387,4.31-19.861,3.661-14.215,2.62a64.381,64.381,0,0,0-6.753,1.245c-.095.028-.2.036-.3.054l1.29.608-2.2-13.622q-2.638-16.347-5.278-32.7-3.179-19.7-6.359-39.4-2.748-17.025-5.5-34.051-.905-5.615-1.813-11.229a39.445,39.445,0,0,0-.862-5.346,1.578,1.578,0,0,1-.039-.24l-1.6,1.435,4.609-.849,12.623-2.327,18.587-3.425,22.672-4.179,24.958-4.6,25.075-4.622,23.387-4.31,19.861-3.661,14.215-2.621a64.133,64.133,0,0,0,6.753-1.244,2.785,2.785,0,0,1,.3-.055l-1.29-.607q1.1,6.835,2.207,13.671,2.626,16.275,5.254,32.549,3.186,19.737,6.371,39.472,2.754,17.057,5.506,34.112.9,5.6,1.809,11.2a47.848,47.848,0,0,0,.86,5.332,2.139,2.139,0,0,1,.039.239c.206,1.277,3.108.514,2.891-.827q-1.1-6.837-2.207-13.672-2.626-16.273-5.254-32.549-3.186-19.735-6.371-39.472-2.754-17.055-5.506-34.112-.905-5.6-1.809-11.2a44.274,44.274,0,0,0-.861-5.333,1.884,1.884,0,0,1-.038-.239c-.086-.53-.9-.679-1.29-.607l-4.609.85-12.624,2.326L268.8,355.085l-22.672,4.179-24.958,4.6-25.075,4.622L172.706,372.8l-19.861,3.66-14.215,2.621q-3.376.622-6.753,1.244l-.3.055c-.63.116-1.749.518-1.6,1.435q1.1,6.811,2.2,13.621,2.638,16.348,5.278,32.7l6.359,39.4q2.748,17.025,5.5,34.05.905,5.616,1.813,11.231a44.506,44.506,0,0,0,.862,5.345,1.725,1.725,0,0,1,.039.239c.086.531.9.679,1.29.608l4.609-.85,12.623-2.327,18.587-3.425,22.672-4.179,24.958-4.6,25.075-4.622,23.387-4.31,19.861-3.661L319.3,488.4c2.251-.416,4.5-.825,6.753-1.245l.3-.054c.57-.106,1.54-.407,1.612-1.17.068-.711-.778-.969-1.3-.873" transform="translate(-0.302 59.076)" fill="#fff"/>
    <path id="패스_7577" data-name="패스 7577" d="M130.069,381.925l9.734,5.224,23.259,12.481L191.3,414.782l24.309,13.044c3.933,2.111,7.825,4.4,11.832,6.35.058.029.114.062.171.092a2.589,2.589,0,0,0,2.676-.623l7.534-8.406q9-10.043,18-20.087l21.854-24.384,18.815-20.993,6.2-6.923a38.665,38.665,0,0,0,2.953-3.3,1.808,1.808,0,0,1,.133-.147c.463-.516-.405-.627-.711-.619a2.872,2.872,0,0,0-1.927.768l-7.534,8.407-18,20.086-21.854,24.384q-9.407,10.5-18.815,20.993l-6.2,6.923c-.971,1.084-2.072,2.126-2.953,3.3-.04.052-.089.1-.133.147l2.676-.622-9.734-5.224-23.259-12.481-28.235-15.152L144.785,387.27c-3.934-2.111-7.826-4.4-11.833-6.35-.058-.028-.114-.061-.171-.091a2.3,2.3,0,0,0-1.876.117c-.138.055-1.34.709-.837.979" transform="translate(-0.302 59.097)" fill="#fff"/>
    <path id="패스_7593" data-name="패스 7593" d="M.083.08,11.061.027l-.053,11.724L.03,11.8Z" transform="matrix(0.998, -0.071, 0.071, 0.998, 103.992, 149.56)" fill="#ffd800"/>
    <path id="패스_7594" data-name="패스 7594" d="M1.034,1.038,21.351.373l-.666,20.148L.368,21.186Z" transform="translate(202.422 86.791) rotate(-48.606)" fill="#fff"/>
    <path id="패스_7595" data-name="패스 7595" d="M.895.91,21.463.329l-.581,19.9L.313,20.807Z" transform="translate(589.193 487.579) rotate(-59.999)" fill="#fff"/>
    <path id="패스_7596" data-name="패스 7596" d="M.5.511,12.041.185l-.326,11.162L.176,11.673Z" transform="matrix(0.5, -0.866, 0.866, 0.5, 786.157, 189.378)" fill="#fd8881"/>
    <path id="패스_7597" data-name="패스 7597" d="M.5.511,12.041.185l-.326,11.162L.176,11.673Z" transform="matrix(0.5, -0.866, 0.866, 0.5, 78.805, 435.652)" fill="#fd8881"/>
    <path id="패스_7578" data-name="패스 7578" d="M143.952,343.873c-5.216-8.6-13.346-14.352-21.682-19.055A168.626,168.626,0,0,0,35.662,303.2a165.35,165.35,0,0,0-33.677,4.315A2.544,2.544,0,0,0,.05,310.4a2.371,2.371,0,0,0,2.923,1.678,161.326,161.326,0,0,1,57.388-2.864A162.954,162.954,0,0,1,115.51,326.7c9,4.75,18.414,10.31,24.018,19.547,1.518,2.5,6.035.284,4.424-2.371" transform="translate(0 20.044)" fill="#fff"/>
  </g>
</svg>
