<?xml version="1.0" standalone="no"?>
<!DOCTYPE svg PUBLIC "-//W3C//DTD SVG 20010904//EN"
 "http://www.w3.org/TR/2001/REC-SVG-20010904/DTD/svg10.dtd">
<svg version="1.0" xmlns="http://www.w3.org/2000/svg"
 width="514.000000pt" height="514.000000pt" viewBox="0 0 514.000000 514.000000"
 preserveAspectRatio="xMidYMid meet">
<metadata>
Created by potrace 1.14, written by Peter Selinger 2001-2017
</metadata>
<g transform="translate(0.000000,514.000000) scale(0.100000,-0.100000)"
fill="#000000" stroke="none">
<path d="M2276 5063 c-3 -3 -27 -7 -53 -9 -55 -4 -89 -10 -223 -35 -30 -6 -80
-17 -110 -26 -30 -8 -63 -17 -73 -19 -70 -13 -375 -130 -427 -164 -8 -5 -29
-16 -46 -24 -53 -24 -236 -137 -309 -191 -161 -119 -319 -264 -435 -400 -23
-27 -52 -61 -63 -75 -47 -55 -186 -271 -240 -370 -74 -139 -174 -378 -192
-460 -2 -8 -15 -58 -28 -110 -14 -52 -28 -111 -31 -130 -3 -19 -8 -46 -10 -60
-8 -44 -16 -97 -23 -167 -10 -86 -10 -439 0 -518 12 -94 17 -129 23 -155 2
-14 9 -47 14 -75 12 -65 58 -244 70 -270 8 -18 23 -63 25 -75 7 -44 166 -383
185 -395 6 -4 8 -10 6 -14 -3 -4 4 -17 14 -29 11 -12 20 -24 20 -27 0 -17 136
-207 224 -313 30 -37 244 -252 286 -288 185 -158 391 -283 673 -409 48 -21
296 -103 334 -110 15 -2 39 -7 53 -11 54 -12 116 -25 145 -29 31 -4 74 -11
135 -22 37 -6 2791 -11 2826 -5 26 5 67 39 83 71 18 33 6 103 -22 128 -27 26
-63 44 -80 42 -6 -1 -331 -1 -722 0 l-710 1 121 68 c105 60 258 158 290 187 6
5 29 24 50 40 21 17 46 38 56 47 10 10 20 18 24 18 15 0 304 303 304 320 0 4
3 10 8 12 10 4 70 82 107 138 17 25 32 47 35 50 6 5 29 44 88 145 37 64 108
215 140 296 16 41 33 83 37 94 4 11 9 25 11 30 1 6 17 57 34 115 38 129 77
337 87 461 13 165 7 485 -12 574 -4 19 -13 75 -20 120 -1 11 -8 38 -13 60 -6
22 -13 51 -16 65 -12 62 -20 93 -42 160 -3 8 -5 16 -4 18 0 1 -7 16 -15 32 -8
16 -15 32 -14 35 1 8 -21 68 -56 150 -23 53 -112 231 -138 275 -26 44 -128
200 -144 220 -6 8 -40 51 -75 95 -65 83 -268 291 -327 335 -18 14 -43 34 -55
45 -25 23 -35 31 -182 130 -214 145 -546 292 -764 339 -14 3 -45 10 -70 16
-71 16 -150 30 -205 36 -27 3 -61 8 -75 11 -32 7 -477 13 -484 6z m443 -247
c41 -5 82 -9 92 -11 9 -2 39 -6 66 -10 26 -4 62 -11 78 -15 17 -5 42 -11 56
-14 73 -12 282 -79 369 -118 73 -32 221 -108 262 -134 21 -13 40 -24 43 -24 3
0 11 -4 18 -10 7 -5 48 -35 92 -66 205 -144 325 -261 525 -511 37 -46 133
-205 185 -307 107 -208 198 -484 220 -670 3 -22 7 -52 10 -66 22 -111 23 -457
1 -580 -3 -14 -7 -41 -10 -60 -9 -60 -42 -222 -46 -227 -2 -2 -3 -6 -4 -10
-37 -140 -143 -413 -180 -463 -7 -8 -22 -35 -35 -60 -13 -25 -37 -64 -53 -88
-15 -24 -28 -45 -28 -47 0 -3 -16 -26 -36 -52 -20 -27 -45 -61 -57 -77 -22
-30 -58 -73 -112 -135 -43 -50 -146 -150 -200 -196 -26 -22 -59 -50 -73 -63
-56 -49 -284 -194 -390 -247 -176 -88 -383 -161 -532 -188 -14 -3 -36 -8 -50
-11 -44 -10 -127 -23 -205 -31 -59 -6 -416 -7 -445 -1 -14 3 -47 7 -75 10 -57
7 -87 12 -165 28 -30 6 -60 12 -66 14 -114 22 -339 105 -488 181 -144 72 -327
189 -403 257 -6 6 -28 25 -48 41 -42 34 -184 174 -230 226 -114 129 -255 340
-332 500 -38 77 -131 312 -138 349 -2 8 -12 51 -24 95 -20 78 -24 100 -36 179
-4 21 -9 48 -11 60 -22 110 -22 515 1 619 2 12 7 40 10 62 3 22 15 78 26 125
11 47 22 92 24 100 8 37 78 236 101 288 180 407 462 748 820 989 125 85 337
192 469 238 44 15 89 31 100 36 39 16 237 63 318 74 23 3 49 8 57 10 8 2 51 7
95 11 44 3 81 7 82 8 5 5 287 -2 352 -8z"/>
<path d="M2405 4693 c-52 -9 -161 -36 -170 -43 -5 -4 -26 -13 -45 -20 -31 -13
-90 -48 -160 -97 -25 -18 -88 -82 -135 -138 -39 -47 -103 -182 -124 -265 -24
-92 -26 -257 -5 -349 40 -172 128 -311 269 -426 70 -57 210 -125 290 -141 11
-2 41 -7 66 -12 48 -9 184 -8 234 2 17 3 40 8 51 10 104 21 244 97 329 178 22
21 43 38 47 38 5 0 8 7 8 15 0 8 4 15 8 15 27 0 129 190 158 295 20 71 27 276
13 331 -28 103 -35 124 -66 189 -50 102 -102 168 -207 260 -68 59 -198 120
-311 146 -49 11 -211 18 -250 12z"/>
<path d="M1085 3725 c-5 -2 -44 -11 -85 -20 -41 -10 -79 -20 -85 -23 -5 -4
-12 -7 -15 -7 -3 0 -29 -13 -58 -28 -256 -130 -414 -386 -413 -667 0 -100 5
-133 27 -209 81 -279 314 -487 604 -538 71 -12 224 -4 302 16 148 38 244 95
353 207 95 97 171 230 189 329 3 17 10 44 15 61 13 46 10 218 -6 282 -8 31
-16 68 -19 82 -3 13 -9 29 -13 35 -4 5 -14 26 -21 45 -17 43 -89 154 -129 197
-24 25 -103 92 -156 131 -25 18 -156 73 -210 87 -52 14 -251 28 -280 20z"/>
<path d="M3675 3714 c-105 -22 -241 -80 -283 -121 -7 -7 -17 -13 -21 -13 -15
0 -140 -131 -175 -184 -36 -54 -100 -186 -90 -186 2 0 0 -8 -5 -17 -5 -10 -13
-36 -17 -58 -10 -51 -11 -269 -1 -315 4 -19 9 -40 10 -47 2 -7 6 -16 10 -19 4
-4 7 -13 7 -21 0 -7 10 -35 22 -61 126 -273 387 -443 683 -444 92 -1 205 17
260 41 83 35 108 48 167 87 82 55 170 149 223 240 22 37 40 71 40 74 1 3 6 14
12 25 31 55 51 177 49 288 -3 118 -7 141 -33 222 -9 28 -15 50 -13 50 6 0 -73
140 -87 153 -7 7 -13 16 -13 20 -1 13 -74 87 -133 135 -84 69 -214 130 -322
153 -58 12 -230 11 -290 -2z"/>
<path d="M1565 2195 c-57 -12 -70 -15 -112 -32 -10 -3 -20 -7 -23 -8 -70 -20
-190 -102 -265 -180 -60 -63 -145 -192 -145 -220 0 -8 -4 -15 -8 -15 -5 0 -9
-6 -10 -12 -1 -7 -12 -51 -24 -98 -63 -234 10 -509 185 -691 49 -51 148 -129
165 -129 5 0 12 -3 14 -7 2 -5 21 -16 43 -26 295 -137 634 -75 859 157 103
106 166 223 199 372 14 61 15 239 2 297 -43 199 -181 396 -348 496 -66 39
-158 77 -206 86 -19 3 -39 9 -44 12 -18 11 -223 10 -282 -2z"/>
<path d="M3191 2194 c-97 -20 -150 -40 -231 -87 -173 -98 -291 -248 -351 -447
-35 -114 -33 -300 4 -420 16 -51 58 -152 67 -160 3 -3 18 -25 34 -49 97 -150
288 -276 471 -312 62 -12 221 -16 265 -6 130 28 215 63 306 125 59 40 159 135
177 169 6 10 14 20 17 23 17 12 88 160 103 215 40 148 40 320 -2 428 -6 15 -9
27 -7 27 8 0 -66 144 -95 186 -103 151 -295 277 -469 309 -70 13 -226 12 -289
-1z"/>
</g>
</svg>
