<svg width="40" height="40" viewBox="0 0 40 40" fill="none" xmlns="http://www.w3.org/2000/svg">
<g clip-path="url(#clip0_1279_1731)">
<path d="M35.491 40H4.50816C2.02016 40 0 37.9807 0 35.491V4.50896C0 2.01936 2.02016 0 4.50816 0H35.491C37.9814 0 40 2.01928 40 4.50896V35.491C40 37.9806 37.9815 40 35.491 40Z" fill="#DC7317"/>
<path d="M8.63625 33.7819V13.9024H6.43457L9.28409 6.2163H14.8073V33.7819H8.63625ZM32.6257 15.6332H22.9574V11.5921H33.0614V6.21582H16.8971V20.9006H27.2527V28.585H22.8865V24.9763H16.8971V33.1649C16.8971 33.5049 17.1735 33.7805 17.5134 33.7805H32.6257C32.789 33.7805 32.9455 33.7157 33.061 33.6002C33.1764 33.4848 33.2413 33.3282 33.2413 33.1649V16.2489C33.2413 16.168 33.2254 16.088 33.1945 16.0133C33.1635 15.9386 33.1182 15.8707 33.061 15.8135C33.0038 15.7563 32.936 15.711 32.8613 15.68C32.7866 15.6491 32.7065 15.6332 32.6257 15.6332Z" fill="white"/>
</g>
<defs>
<clipPath id="clip0_1279_1731">
<rect width="40" height="40" fill="white"/>
</clipPath>
</defs>
</svg>
