<svg width="40" height="40" viewBox="0 0 40 40" fill="none" xmlns="http://www.w3.org/2000/svg">
<g clip-path="url(#clip0_1497_762)">
<path d="M35.4903 40.001H4.51082C2.02018 40.001 0.000976562 37.9826 0.000976562 35.4928V4.51082C0.000976562 2.02018 2.02026 0.000976562 4.51082 0.000976562H35.4903C37.98 0.000976562 40.001 2.02026 40.001 4.51082V35.4928C40.001 37.9825 37.98 40.001 35.4903 40.001Z" fill="#EABC00"/>
<path d="M8.65596 33.7828V13.9025H6.45508L9.3054 6.21883H14.8261V33.7828H8.65596ZM32.6096 6.21875H17.5329C17.3696 6.21875 17.2131 6.28361 17.0976 6.39906C16.9822 6.5145 16.9173 6.67108 16.9173 6.83435V15.1658H22.9439V11.4136H27.202V14.7317L16.7002 29.7061V33.7489H33.1551V28.371H24.3517L32.0353 17.5837C32.2763 17.2461 32.4677 16.9524 32.6129 16.6991C32.7582 16.4465 32.8779 16.2015 32.9744 15.9588C33.0693 15.7195 33.1361 15.4546 33.1716 15.1658C33.2088 14.877 33.2252 14.5288 33.2252 14.1194V6.83435C33.2253 6.75349 33.2094 6.67341 33.1785 6.5987C33.1476 6.52398 33.1022 6.45609 33.0451 6.39891C32.9879 6.34174 32.92 6.2964 32.8453 6.26548C32.7706 6.23457 32.6905 6.21869 32.6096 6.21875Z" fill="white"/>
</g>
<defs>
<clipPath id="clip0_1497_762">
<rect width="40" height="40" fill="white"/>
</clipPath>
</defs>
</svg>
