<svg width="40" height="40" viewBox="0 0 40 40" fill="none" xmlns="http://www.w3.org/2000/svg">
<g clip-path="url(#clip0_1279_1734)">
<path d="M35.4925 40H4.50924C2.01832 40 0.000976562 37.9827 0.000976562 35.4919V4.50912C0.000976562 2.01896 2.01832 -0.000305176 4.50924 -0.000305176H35.4925C37.9828 -0.000305176 40.0014 2.01896 40.0014 4.50912V35.4919C40.0014 37.9827 37.9828 40 35.4925 40Z" fill="#D92C35"/>
<path d="M22.8905 11.9029C22.8911 11.7392 22.9564 11.5824 23.0719 11.467C23.1875 11.3516 23.3439 11.2869 23.5069 11.2873H26.675C26.838 11.2869 26.9944 11.3516 27.11 11.467C27.2256 11.5824 27.2908 11.7392 27.2914 11.9029V16.7266C27.2908 16.8903 27.2256 17.0471 27.11 17.1625C26.9944 17.2779 26.838 17.3425 26.675 17.3422H23.5069C23.3439 17.3425 23.1875 17.2779 23.0719 17.1625C22.9564 17.0471 22.8911 16.8903 22.8905 16.7266V16.4632V11.9029ZM32.7363 6.21702H17.4074C17.2444 6.21668 17.088 6.28131 16.9724 6.39673C16.8568 6.51214 16.7916 6.66891 16.791 6.83259V20.714C16.7911 21.0411 16.9205 21.3549 17.1509 21.5862C17.3812 21.8176 17.6935 21.9476 18.0193 21.9477H27.3634V28.5865H22.997V24.9775H17.0071V33.1667C17.0071 33.5066 17.2828 33.7822 17.6228 33.7822H32.7366C33.0764 33.7822 33.352 33.5066 33.352 33.1667V6.83259C33.3514 6.66902 33.2863 6.51235 33.1709 6.39695C33.0554 6.28156 32.8992 6.21685 32.7363 6.21702Z" fill="white"/>
<path d="M8.47401 33.7819V13.9007H6.27246L9.12444 6.21777H14.6432V33.7828L8.47401 33.7819Z" fill="white"/>
</g>
<defs>
<clipPath id="clip0_1279_1734">
<rect width="40" height="40" fill="white"/>
</clipPath>
</defs>
</svg>
