<svg width="40" height="40" viewBox="0 0 40 40" fill="none" xmlns="http://www.w3.org/2000/svg">
<g clip-path="url(#clip0_1279_1725)">
<path d="M35.4904 40H4.50942C2.0195 40 -0.000976562 37.9811 -0.000976562 35.4906V4.50944C-0.000976562 2.0188 2.0195 0 4.50934 0H35.4904C37.981 0 39.999 2.0188 39.999 4.50944V35.4906C39.999 37.9811 37.981 40 35.4904 40Z" fill="#00964B"/>
<path d="M11.5951 30.2574L11.11 27.1916L7.56067 27.1924L7.07555 30.2557L2.50195 30.2573V30.2024L6.83299 9.70636H11.8352L16.1662 30.204L16.1678 30.2574H11.5951ZM9.33451 16.3222L8.20419 23.3173H10.464L9.33451 16.3222ZM16.9724 30.2572V9.7054H21.546V26.1412H26.9257V30.2572H16.9724ZM27.8945 30.256V9.70508L32.4681 9.70588L32.4657 26.1416H37.8479V30.2585L27.8945 30.256Z" fill="white"/>
</g>
<defs>
<clipPath id="clip0_1279_1725">
<rect width="40" height="40" fill="white"/>
</clipPath>
</defs>
</svg>
