<svg width="248" height="61" viewBox="0 0 248 61" fill="none" xmlns="http://www.w3.org/2000/svg">
<path d="M150.342 27.5698L159.236 38.9847" stroke="white" stroke-width="3.27879" stroke-miterlimit="10" stroke-linecap="round"/>
<path d="M160.493 28.8262L149.078 37.7284" stroke="white" stroke-width="3.27879" stroke-miterlimit="10" stroke-linecap="round"/>
<path d="M48.9297 53.687H74.0641" stroke="white" stroke-width="2.73233" stroke-miterlimit="10" stroke-linecap="round"/>
<path d="M49.1818 9.23225C60.8713 9.23225 70.3892 18.7419 70.3892 30.4396C70.3892 42.1291 60.8796 51.647 49.1818 51.647C37.4841 51.647 27.9744 42.1374 27.9744 30.4396C27.9744 18.7502 37.4924 9.23225 49.1818 9.23225ZM49.1818 5.9043C35.6288 5.9043 24.6465 16.8865 24.6465 30.4396C24.6465 43.9927 35.6288 54.975 49.1818 54.975C62.7349 54.975 73.7172 43.9927 73.7172 30.4396C73.7172 16.8865 62.7349 5.9043 49.1818 5.9043Z" fill="white"/>
<path d="M49.5079 24.9982C53.3998 24.9982 56.5548 21.8432 56.5548 17.9512C56.5548 14.0593 53.3998 10.9043 49.5079 10.9043C45.616 10.9043 42.4609 14.0593 42.4609 17.9512C42.4609 21.8432 45.616 24.9982 49.5079 24.9982Z" fill="white"/>
<path d="M42.0762 48.32C45.9682 48.32 49.1232 45.1649 49.1232 41.273C49.1232 37.3811 45.9682 34.2261 42.0762 34.2261C38.1843 34.2261 35.0293 37.3811 35.0293 41.273C35.0293 45.1649 38.1843 48.32 42.0762 48.32Z" fill="white"/>
<path d="M61.7959 34.0596C65.6787 34.0596 68.8262 30.9121 68.8262 27.0293C68.8262 23.1466 65.6787 19.999 61.7959 19.999C57.9132 19.999 54.7656 23.1466 54.7656 27.0293C54.7656 30.9121 57.9132 34.0596 61.7959 34.0596Z" fill="white"/>
<path d="M37.127 34.0753C41.0189 34.0753 44.174 30.9203 44.174 27.0284C44.174 23.1365 41.0189 19.9814 37.127 19.9814C33.2351 19.9814 30.0801 23.1365 30.0801 27.0284C30.0801 30.9203 33.2351 34.0753 37.127 34.0753Z" fill="white"/>
<path d="M57.3184 48.32C61.2103 48.32 64.3654 45.1649 64.3654 41.273C64.3654 37.3811 61.2103 34.2261 57.3184 34.2261C53.4265 34.2261 50.2715 37.3811 50.2715 41.273C50.2715 45.1649 53.4265 48.32 57.3184 48.32Z" fill="white"/>
<path d="M15.2785 46.547C13.6394 46.547 12.0254 46.2391 10.4529 45.6151C8.88045 44.9912 7.49103 44.1092 6.29297 42.9528L9.12175 39.5583C9.98702 40.3819 10.9771 41.0392 12.1003 41.5384C13.2234 42.0376 14.3134 42.2872 15.3783 42.2872C16.6679 42.2872 17.6413 42.0293 18.3069 41.5218C18.9725 41.0142 19.3053 40.3237 19.3053 39.4584C19.3053 38.8344 19.1472 38.3436 18.8227 37.9775C18.4982 37.6114 18.0656 37.2869 17.5082 36.9957C16.9508 36.7045 16.3101 36.4217 15.578 36.1305L12.3166 34.6994C11.4929 34.3667 10.7025 33.9174 9.93708 33.3516C9.17165 32.7859 8.53934 32.0704 8.04015 31.2051C7.54096 30.3398 7.29137 29.3082 7.29137 28.1101C7.29137 26.754 7.65745 25.5476 8.3896 24.4826C9.12175 23.4177 10.1284 22.5691 11.418 21.9367C12.7076 21.3044 14.1719 20.9883 15.8109 20.9883C17.2752 20.9883 18.6813 21.2628 20.0374 21.8203C21.3936 22.3777 22.5667 23.1598 23.5651 24.1831L21.0691 27.2448C20.2953 26.6042 19.48 26.105 18.6397 25.7473C17.7994 25.3895 16.8509 25.2148 15.8109 25.2148C14.746 25.2148 13.8973 25.4394 13.265 25.897C12.6327 26.3546 12.3166 26.9869 12.3166 27.8106C12.3166 28.3847 12.4913 28.8672 12.849 29.2416C13.2068 29.616 13.6727 29.9488 14.2468 30.2233C14.8209 30.4979 15.4532 30.7808 16.1437 31.072L19.3718 32.3699C20.3702 32.7692 21.2438 33.2684 21.9843 33.8675C22.7248 34.4665 23.3071 35.1903 23.7148 36.0306C24.1225 36.8709 24.3305 37.8943 24.3305 39.0923C24.3305 40.4235 23.9727 41.6549 23.2489 42.7864C22.5251 43.9179 21.4934 44.8248 20.1539 45.5153C18.8144 46.2059 17.1837 46.547 15.2785 46.547Z" fill="#E50914"/>
<path d="M75.1074 46.0811V21.4209H81.8632C84.3924 21.4209 86.5639 21.8619 88.3693 22.7521C90.1747 23.6423 91.5725 24.9818 92.5625 26.7789C93.5526 28.576 94.0435 30.864 94.0435 33.6345C94.0435 36.405 93.5526 38.7179 92.5792 40.5566C91.6058 42.3953 90.2246 43.7764 88.4525 44.6999C86.6804 45.6235 84.5671 46.0811 82.1294 46.0811H75.1074ZM80.0328 42.0875H81.5304C83.0862 42.0875 84.4174 41.8046 85.5405 41.2389C86.6637 40.6731 87.5207 39.7663 88.1197 38.51C88.7187 37.2536 89.0183 35.6313 89.0183 33.6345C89.0183 31.6377 88.7187 30.032 88.1197 28.8256C87.5207 27.6192 86.6637 26.7373 85.5405 26.1965C84.4174 25.6557 83.0862 25.3812 81.5304 25.3812H80.0328V42.0875Z" fill="#E50914"/>
<path d="M95.1406 46.0811L103.028 21.4209H108.852L116.739 46.0811H111.547L108.053 33.2351C107.679 31.9456 107.313 30.6144 106.972 29.225C106.63 27.8355 106.264 26.4877 105.89 25.1815H105.757C105.449 26.5127 105.108 27.8688 104.742 29.2416C104.376 30.6144 104.018 31.9456 103.66 33.2351L100.133 46.0811H95.1406ZM100.033 39.7579V35.9308H111.747V39.7579H100.033Z" fill="#E50914"/>
<path d="M119.635 46.0811V21.4209H125.093L129.286 33.0022C129.552 33.7343 129.81 34.5081 130.051 35.3151C130.293 36.1221 130.542 36.9209 130.783 37.6946H130.95C131.216 36.9209 131.474 36.1221 131.715 35.3151C131.957 34.5081 132.189 33.7343 132.414 33.0022L136.541 21.4209H141.999V46.0811H137.506V35.7977C137.506 34.999 137.539 34.1254 137.606 33.1686C137.672 32.2118 137.755 31.255 137.855 30.2899C137.955 29.3248 138.047 28.4679 138.138 27.7107H138.005L135.975 33.5014L132.181 43.8513H129.352L125.525 33.5014L123.562 27.7107H123.429C123.52 28.4679 123.603 29.3248 123.695 30.2899C123.786 31.255 123.87 32.2118 123.944 33.1686C124.019 34.1254 124.061 34.999 124.061 35.7977V46.0811H119.635Z" fill="#E50914"/>
<path d="M178.905 46.547C177.349 46.547 175.901 46.2724 174.545 45.7316C173.189 45.1908 171.999 44.3755 170.968 43.2856C169.936 42.1957 169.129 40.8645 168.538 39.292C167.947 37.7196 167.656 35.9058 167.656 33.8675C167.656 31.8291 167.956 30.0154 168.555 28.4263C169.154 26.8372 169.977 25.4893 171.034 24.3828C172.091 23.2763 173.305 22.4276 174.695 21.8535C176.084 21.2795 177.549 20.9883 179.104 20.9883C180.677 20.9883 182.083 21.3044 183.314 21.9367C184.546 22.5691 185.552 23.3095 186.326 24.1498L183.764 27.2781C183.14 26.6541 182.457 26.1549 181.717 25.7805C180.976 25.4061 180.136 25.2148 179.204 25.2148C177.965 25.2148 176.85 25.5559 175.86 26.2298C174.87 26.9037 174.104 27.8771 173.547 29.1418C172.989 30.4064 172.715 31.9289 172.715 33.7011C172.715 35.4982 172.973 37.0373 173.497 38.3103C174.021 39.5832 174.761 40.565 175.727 41.2555C176.692 41.9461 177.815 42.2872 179.104 42.2872C180.169 42.2872 181.118 42.0626 181.95 41.605C182.782 41.1474 183.522 40.565 184.163 39.8578L186.792 42.9195C185.769 44.1176 184.604 45.0244 183.298 45.6318C181.991 46.2391 180.527 46.547 178.905 46.547Z" fill="white"/>
<path d="M190.719 46.0811V21.4209H195.644V46.0811H190.719Z" fill="white"/>
<path d="M201.701 46.0811V21.4209H206.726L213.881 34.5663L216.377 39.8911H216.544C216.411 38.6015 216.269 37.1954 216.111 35.6646C215.953 34.1337 215.878 32.6694 215.878 31.2717V21.4209H220.537V46.0811H215.512L208.424 32.9023L205.928 27.6109H205.761C205.869 28.9421 206.003 30.3481 206.161 31.8374C206.319 33.3267 206.394 34.7743 206.394 36.197V46.0811H201.701Z" fill="white"/>
<path d="M226.629 46.0811V21.4209H241.738V25.5476H231.554V31.2384H240.174V35.365H231.554V41.9544H242.104V46.0811H226.629Z" fill="white"/>
<path d="M62.3434 30.9732C61.6196 30.9732 60.9789 30.7985 60.4298 30.4574C59.8807 30.1163 59.4481 29.6171 59.1319 28.9764C58.8241 28.3358 58.666 27.5621 58.666 26.6635C58.666 25.7733 58.8241 25.0162 59.1319 24.3839C59.4398 23.7516 59.8724 23.2773 60.4298 22.9362C60.9873 22.5951 61.6196 22.437 62.3434 22.437C63.0755 22.437 63.7162 22.6034 64.2653 22.9445C64.8144 23.2856 65.2387 23.7599 65.5549 24.3922C65.8627 25.0162 66.0208 25.7733 66.0208 26.6635C66.0208 27.5621 65.8627 28.3275 65.5549 28.9764C65.247 29.6171 64.8144 30.1163 64.2653 30.4574C63.7162 30.7985 63.0755 30.9732 62.3434 30.9732ZM62.3434 29.5505C62.7511 29.5505 63.1005 29.434 63.4 29.1928C63.6995 28.9598 63.9325 28.6187 64.0906 28.1861C64.257 27.7534 64.3319 27.2459 64.3319 26.6552C64.3319 26.0645 64.2486 25.5653 64.0906 25.1493C63.9242 24.7333 63.6995 24.4088 63.4 24.1842C63.1005 23.9596 62.7427 23.8431 62.3434 23.8431C61.944 23.8431 61.578 23.9596 61.2784 24.1842C60.9789 24.4088 60.746 24.7333 60.5879 25.1493C60.4298 25.5653 60.3466 26.0728 60.3466 26.6552C60.3466 27.2376 60.4298 27.7451 60.5879 28.1861C60.746 28.627 60.9789 28.9515 61.2784 29.1928C61.5863 29.434 61.9357 29.5505 62.3434 29.5505Z" fill="#CCCCCC"/>
<path d="M45.9531 22.2123V13.9839H47.7752L49.1729 17.8526C49.2644 18.0939 49.3476 18.3518 49.4308 18.6264C49.514 18.8926 49.5972 19.1589 49.6721 19.4168H49.7304C49.8219 19.1589 49.9051 18.8926 49.9883 18.6264C50.0715 18.3601 50.1464 18.1022 50.2212 17.8526L51.6023 13.9839H53.4244V22.2123H51.9268V18.7761C51.9268 18.5099 51.9351 18.2187 51.9601 17.9025C51.985 17.5864 52.01 17.2619 52.0433 16.9458C52.0766 16.6213 52.1098 16.3384 52.1348 16.0888H52.0932L51.4193 18.019L50.1547 21.4718H49.2145L47.9333 18.019L47.276 16.0888H47.2344C47.2677 16.3384 47.2926 16.6296 47.3259 16.9458C47.3592 17.2702 47.3841 17.5864 47.4091 17.9025C47.4341 18.2187 47.4507 18.5099 47.4507 18.7761V22.2039H45.9531V22.2123Z" fill="#CCCCCC"/>
<path d="M56.5614 45.8153L54.0488 37.5869H55.7794L56.8526 41.5971C56.9857 42.0464 57.1022 42.4873 57.202 42.9116C57.3019 43.336 57.4184 43.7852 57.5432 44.2511H57.6014C57.7345 43.7852 57.851 43.336 57.9592 42.9116C58.059 42.4873 58.1755 42.0464 58.3003 41.5971L59.3652 37.5869H61.0292L58.5166 45.8153H56.5614Z" fill="#CCCCCC"/>
<path d="M41.4531 45.3504V37.1221H43.1005V45.3504H41.4531Z" fill="#CCCCCC"/>
<path d="M34.7793 31.0067V22.7783H39.8211V24.1594H36.4266V26.0564H39.3053V27.4375H36.4266V29.6339H39.9459V31.015H34.7793V31.0067Z" fill="#CCCCCC"/>
</svg>
